<?xml version="1.0" standalone="no"?>
<!DOCTYPE svg PUBLIC "-//W3C//DTD SVG 20010904//EN"
 "http://www.w3.org/TR/2001/REC-SVG-20010904/DTD/svg10.dtd">
<svg version="1.0" xmlns="http://www.w3.org/2000/svg"
 width="260.000000pt" height="260.000000pt" viewBox="0 0 260.000000 260.000000"
 preserveAspectRatio="xMidYMid meet">
<metadata>
Created by potrace 1.14, written by Peter Selinger 2001-2017
</metadata>
<g transform="translate(0.000000,260.000000) scale(0.100000,-0.100000)"
fill="#000000" stroke="none">
<path d="M0 1300 l0 -1300 1300 0 1300 0 0 1300 0 1300 -1300 0 -1300 0 0
-1300z m2265 1218 c14 -6 25 -18 25 -25 0 -44 -84 -508 -102 -562 -31 -94 -88
-148 -193 -184 -44 -14 -69 -27 -55 -27 14 0 54 10 90 22 81 29 147 91 173
163 9 28 37 169 62 314 25 146 48 267 50 270 3 2 10 0 17 -7 8 -8 -1 -80 -36
-284 -65 -380 -91 -429 -259 -480 -52 -15 -66 -23 -54 -30 16 -9 111 18 168
47 41 21 85 78 107 137 11 30 37 151 56 269 56 331 54 321 78 308 16 -9 19
-17 14 -42 -4 -18 -22 -124 -41 -237 -44 -255 -53 -295 -77 -345 -39 -78 -95
-120 -208 -156 -50 -15 -53 -18 -29 -24 54 -14 186 41 236 98 44 51 60 109
112 410 l47 269 21 -19 22 -18 -49 -278 c-55 -318 -73 -368 -150 -426 -41 -31
-48 -42 -87 -152 -23 -66 -55 -146 -71 -179 -17 -33 -27 -60 -22 -60 14 0 68
122 108 244 44 131 39 123 54 108 12 -12 -40 -176 -97 -299 -30 -66 -33 -83
-15 -83 18 0 145 344 134 361 -8 13 10 11 30 -4 16 -11 14 -20 -24 -132 -23
-66 -54 -147 -70 -179 l-28 -60 24 -31 c20 -27 114 -213 114 -228 0 -8 -163
-71 -182 -70 -13 1 -18 -8 -20 -45 l-3 -47 -77 -29 c-59 -22 -78 -34 -78 -48
0 -29 -74 -102 -140 -137 -79 -42 -152 -51 -203 -24 l-38 19 53 0 c86 0 198
57 249 127 27 37 28 41 11 53 -15 11 -14 13 13 12 17 0 61 12 98 27 l68 27 -3
56 c-4 73 -28 85 -28 14 l0 -50 -86 -34 c-64 -25 -89 -40 -100 -59 -36 -71
-174 -151 -258 -151 -28 0 -60 3 -71 6 -17 6 -23 0 -38 -42 -50 -142 -235
-247 -349 -198 -21 9 -38 17 -38 19 0 1 25 3 55 3 68 1 170 50 217 103 37 41
82 136 75 155 -4 10 9 16 46 20 116 16 257 119 257 188 l-1 33 -20 -40 c-10
-21 -31 -51 -45 -66 -56 -59 -248 -135 -266 -106 -5 8 -8 7 -8 -4 0 -32 -62
-139 -102 -174 -80 -73 -206 -108 -267 -76 -21 12 -21 10 -21 -68 l0 -79 -81
-31 c-91 -35 -95 -35 -127 -17 -23 12 -19 14 62 45 l86 33 0 81 c0 71 -3 84
-20 95 -19 12 -20 10 -20 -71 l0 -83 -80 -29 c-44 -16 -79 -34 -77 -40 6 -16
-36 -72 -84 -110 -86 -68 -199 -93 -266 -57 l-32 17 58 0 c87 1 198 61 253
138 20 27 20 29 2 42 -18 14 -18 14 3 10 20 -3 144 38 168 56 14 11 3 171 -12
176 -9 3 -13 -19 -15 -77 l-3 -82 -85 -34 c-47 -19 -87 -40 -89 -46 -10 -30
-85 -96 -143 -125 -80 -42 -143 -51 -186 -29 -18 9 -32 18 -32 19 0 1 24 2 53
2 40 1 71 10 120 34 61 30 147 107 147 131 0 5 5 10 12 10 7 0 49 14 95 31
l83 32 0 86 c0 133 -14 154 -20 31 l-5 -104 -75 -33 c-76 -32 -110 -40 -110
-25 0 5 35 23 78 39 l77 30 0 372 0 371 -2 -368 -3 -367 -75 -29 c-63 -24 -78
-34 -91 -62 -35 -73 -155 -149 -252 -161 -39 -4 -59 -1 -93 16 -137 69 -159
105 -167 268 -8 187 25 302 110 378 51 46 130 82 203 91 34 5 51 1 98 -26 32
-18 57 -39 58 -48 0 -14 2 -13 9 3 10 23 13 208 4 218 -3 3 -27 -3 -52 -14
-43 -19 -92 -19 -92 -1 0 4 36 21 80 37 84 32 84 31 83 100 0 6 42 26 93 45
l93 35 7 55 c11 84 10 123 -2 127 -7 2 -14 -26 -20 -79 l-9 -83 -97 -39 c-94
-38 -97 -40 -100 -74 -3 -33 -6 -35 -87 -67 -63 -25 -89 -31 -103 -24 -10 5
-18 11 -18 13 0 3 33 17 73 32 95 37 99 40 95 88 l-3 41 80 32 c46 19 83 39
87 50 4 10 23 146 43 303 41 328 43 340 57 340 7 0 8 -19 3 -55 -8 -66 0 -72
16 -10 9 37 14 43 27 36 10 -6 24 -5 37 1 11 6 2 -6 -21 -25 -23 -21 -51 -59
-65 -89 -20 -46 -23 -69 -24 -178 0 -171 20 -211 118 -234 16 -4 26 -3 24 2
-3 4 16 15 42 25 119 42 181 160 181 345 0 132 -27 188 -96 203 l-39 8 40 -3
c23 -2 63 -17 91 -35 28 -17 54 -31 57 -31 3 0 8 26 10 58 2 31 3 -54 3 -191
-1 -136 2 -247 5 -247 4 0 29 9 57 21 40 17 54 19 69 9 16 -10 16 -11 -5 -7
-13 3 -20 1 -16 -5 4 -6 -2 -8 -17 -3 -20 5 -21 4 -9 -5 12 -10 11 -11 -8 -7
-13 3 -20 1 -16 -5 4 -6 -2 -8 -17 -3 -20 5 -21 4 -9 -5 12 -10 11 -11 -8 -7
-13 3 -21 3 -18 0 10 -10 -22 -59 -63 -96 -51 -46 -104 -73 -163 -81 -51 -8
-46 2 -64 -127 -6 -45 -8 -47 -50 -59 l-44 -13 1 -111 c0 -84 3 -105 10 -86 6
14 9 59 7 101 -3 76 -3 76 19 66 18 -8 22 -16 18 -44 -4 -30 -2 -33 11 -22 8
7 12 19 9 26 -3 9 0 13 7 10 7 -2 24 4 38 13 47 32 109 60 161 71 49 11 53 10
130 -30 71 -37 80 -40 85 -24 32 103 96 177 188 219 87 40 137 42 202 9 31
-16 60 -38 64 -49 6 -13 9 24 9 100 l1 120 -32 17 -33 16 28 0 c33 1 75 21
100 49 11 11 26 17 40 15 12 -2 37 2 56 10 l33 14 -26 7 c-15 4 -40 0 -60 -8
-19 -8 -39 -10 -46 -6 -9 6 -27 -3 -52 -25 -46 -38 -83 -48 -117 -30 -24 12
-24 12 13 19 20 4 52 21 71 37 19 17 39 28 45 24 15 -9 77 13 84 30 5 15 -11
14 -57 -4 -16 -6 -37 -11 -47 -11 -11 0 -39 -13 -62 -30 -45 -31 -87 -43 -107
-31 -8 5 4 14 32 25 41 15 102 65 81 67 -5 0 23 13 61 28 l70 29 3 321 c1 202
6 321 12 321 6 0 10 -13 10 -30 0 -16 5 -30 10 -30 6 0 10 9 10 20 0 21 15 27
25 10 3 -5 16 -10 28 -11 15 0 7 -7 -25 -21 -29 -13 -48 -27 -48 -37 0 -25 75
-380 82 -386 3 -4 23 1 43 10 44 18 51 15 35 -14 -9 -18 -14 -19 -32 -10 -12
7 -18 7 -14 1 3 -6 0 -13 -6 -16 -7 -3 -3 -3 10 0 12 3 22 1 22 -3 0 -12 -55
-38 -98 -47 -17 -4 -32 -13 -32 -20 0 -7 -3 -34 -6 -60 l-7 -47 39 7 c21 4 54
13 72 21 18 7 37 11 43 8 5 -4 9 -3 7 2 -1 4 17 27 40 51 54 55 70 110 122
415 22 130 40 239 40 242 0 2 -12 0 -26 -5 -37 -15 -44 -11 -9 5 37 17 39 18
70 3z m-125 -33 c-14 -7 -28 -24 -31 -37 -7 -23 -7 -23 -8 3 -1 18 6 29 22 37
32 16 46 14 17 -3z m-302 -335 l2 -325 -62 -24 c-35 -13 -76 -36 -93 -51 -16
-16 -48 -36 -70 -47 l-40 -18 -5 -95 -5 -94 -70 -27 c-50 -19 -75 -24 -88 -17
-25 13 -17 20 57 48 l66 24 0 93 c0 84 -2 93 -21 104 -21 11 -21 10 -18 -82
l4 -93 -76 -30 c-65 -26 -80 -36 -106 -75 -56 -85 -187 -140 -258 -110 l-30
12 51 7 c29 4 76 20 105 36 50 28 109 92 109 121 0 7 8 13 17 13 10 0 47 12
84 26 l67 26 -4 62 c-2 33 -7 111 -11 171 l-8 110 -5 -165 -5 -165 -81 -30
c-69 -26 -87 -38 -115 -75 -49 -62 -119 -103 -190 -108 -77 -6 -111 13 -39 21
29 4 75 19 104 35 54 31 120 106 112 128 -3 9 19 22 69 41 l75 28 0 170 c1
181 4 195 51 214 18 7 20 10 6 10 -10 1 -29 -10 -42 -24 -25 -24 -25 -27 -25
-195 0 -93 -2 -170 -4 -170 -29 0 -31 13 -26 184 4 154 7 176 24 195 11 12 26
19 33 16 8 -2 11 0 8 5 -3 6 0 10 8 10 14 0 27 64 27 137 0 47 29 33 32 -16
l1 -36 4 33 c2 18 10 32 17 32 11 0 11 -8 -2 -42 -23 -65 -28 -271 -8 -340 15
-53 27 -65 79 -82 12 -4 16 -2 11 6 -5 8 0 9 15 5 13 -3 20 -3 17 0 -5 6 43
48 55 48 4 0 11 4 16 9 5 5 2 6 -6 1 -9 -5 -12 -3 -9 6 3 8 10 13 16 12 5 -1
9 3 9 10 -1 30 4 47 13 47 6 0 10 -16 10 -35 0 -19 4 -35 9 -35 4 0 32 10 60
21 l52 22 -3 319 c-3 279 -1 318 12 316 13 -3 15 -49 18 -328z m-135 283 c-9
-3 -13 -31 -13 -87 0 -90 -5 -104 -29 -82 -9 8 -25 16 -36 19 -11 2 -3 3 18 1
l37 -4 0 73 c0 74 4 88 24 86 6 0 5 -3 -1 -6z m311 1 c9 -3 16 -18 17 -33 l1
-26 8 25 c8 29 14 20 29 -45 l9 -40 1 43 c1 23 6 42 12 42 7 0 9 -12 5 -32 -8
-42 -36 -258 -36 -275 0 -7 -4 -13 -8 -13 -4 0 -13 44 -19 98 -26 214 -34 251
-52 245 -14 -4 -14 -3 -1 6 18 13 15 12 34 5z m-474 -178 c0 -2 -8 -10 -17
-17 -16 -13 -17 -12 -4 4 13 16 21 21 21 13z m-193 -95 c-19 -21 -38 -53 -42
-70 -11 -53 -25 -45 -25 14 0 51 2 55 19 46 14 -8 24 -4 46 19 42 44 43 37 2
-9z m341 -94 c-3 -146 -15 -181 -64 -193 -43 -11 -49 7 -49 134 0 127 12 163
58 182 59 23 59 22 55 -123z m-428 73 c-8 -5 -19 -10 -25 -10 -5 0 -3 5 5 10
8 5 20 10 25 10 6 0 3 -5 -5 -10z m-50 -20 c-8 -5 -19 -10 -25 -10 -5 0 -3 5
5 10 8 5 20 10 25 10 6 0 3 -5 -5 -10z m-463 -88 c10 -6 4 -78 -27 -317 -22
-171 -42 -319 -45 -330 -3 -15 -27 -28 -87 -51 -82 -30 -83 -31 -94 -73 -10
-42 -12 -44 -93 -77 -59 -24 -88 -31 -100 -24 -13 7 -11 11 14 20 17 6 55 21
85 34 l55 22 8 54 c4 30 3 65 -2 79 -9 24 -9 23 -10 -14 -3 -106 -5 -109 -96
-144 -90 -34 -95 -35 -95 -22 0 5 34 21 75 36 42 16 78 31 80 35 2 4 6 38 9
76 l5 69 -10 -70 c-6 -38 -12 -71 -13 -73 -7 -6 -35 11 -31 18 3 5 17 111 30
237 14 125 27 233 29 238 4 11 6 -10 33 -269 13 -124 22 -171 32 -174 8 -3 11
0 7 6 -3 5 25 22 66 39 l73 29 41 320 c23 175 40 322 37 327 -6 9 9 9 24 -1z
m-114 -52 c-3 -11 -7 -20 -9 -20 -2 0 -4 9 -4 20 0 11 4 20 9 20 5 0 7 -9 4
-20z m-89 -26 c12 -4 17 -22 18 -63 l2 -56 3 53 c5 67 23 59 23 -10 0 -58 8
-61 12 -4 1 20 6 40 12 43 5 4 7 -19 3 -58 -3 -35 -12 -131 -18 -214 -7 -82
-15 -154 -19 -158 -4 -5 -13 43 -20 105 -16 146 -36 368 -34 368 1 0 9 -3 18
-6z m437 -51 c22 -25 18 -218 -4 -260 -21 -40 -61 -53 -85 -29 -13 13 -17 37
-17 119 0 133 16 174 64 168 7 -2 10 2 6 8 -10 18 21 12 36 -6z m-599 -33 c-2
-16 -6 -30 -8 -30 -2 0 -4 14 -4 30 0 17 4 30 8 30 5 0 7 -13 4 -30z m-88 -16
c11 -4 17 -21 18 -58 l2 -51 3 48 c5 62 23 51 23 -15 0 -60 7 -59 20 3 8 37 9
33 5 -31 -9 -131 -32 -351 -38 -356 -3 -3 -8 14 -12 38 -8 59 -42 428 -39 428
1 0 9 -3 18 -6z m-151 -64 c-3 -12 -8 -19 -11 -16 -5 6 5 36 12 36 2 0 2 -9
-1 -20z m4 -67 c-3 -10 -5 -4 -5 12 0 17 2 24 5 18 2 -7 2 -21 0 -30z m10 -65
c-3 -7 -5 -2 -5 12 0 14 2 19 5 13 2 -7 2 -19 0 -25z m10 -60 c-3 -7 -5 -2 -5
12 0 14 2 19 5 13 2 -7 2 -19 0 -25z m2230 -26 l22 -13 -40 -117 c-23 -64 -54
-145 -70 -179 l-30 -63 25 -33 c30 -39 117 -219 110 -227 -3 -3 -44 -21 -92
-40 l-87 -35 -5 -49 -5 -48 -74 -30 c-77 -30 -101 -31 -136 -3 -11 9 -15 14
-9 11 6 -3 48 9 92 26 l82 31 0 48 c0 41 3 49 19 49 16 0 158 54 168 64 7 7
-85 195 -110 228 l-25 31 30 63 c16 34 47 114 68 176 29 87 35 116 26 127 -12
16 -6 13 41 -17z m-2220 -49 c-3 -10 -5 -4 -5 12 0 17 2 24 5 18 2 -7 2 -21 0
-30z m2301 0 l33 -28 -41 -119 c-22 -65 -54 -144 -69 -175 l-29 -56 32 -45
c43 -60 111 -209 100 -219 -15 -13 -143 -61 -162 -61 -9 1 -27 6 -39 13 -21
12 -16 15 67 46 50 18 90 34 90 35 0 1 -8 20 -19 42 -10 21 -31 65 -46 97 -14
31 -37 70 -50 86 l-24 28 38 89 c65 151 96 254 82 276 -16 26 0 22 37 -9z
m-2291 -70 c-3 -10 -5 -2 -5 17 0 19 2 27 5 18 2 -10 2 -26 0 -35z m10 -65
c-3 -7 -5 -2 -5 12 0 14 2 19 5 13 2 -7 2 -19 0 -25z m10 -70 c-3 -7 -5 -2 -5
12 0 14 2 19 5 13 2 -7 2 -19 0 -25z m10 -75 c-3 -10 -5 -2 -5 17 0 19 2 27 5
18 2 -10 2 -26 0 -35z m158 21 c11 -5 -6 -16 -56 -35 -44 -17 -78 -25 -87 -20
-10 6 4 16 49 34 72 29 71 29 94 21z"/>
<path d="M2260 2506 c0 -32 -85 -495 -100 -546 -19 -64 -78 -150 -103 -150 -6
0 5 17 24 38 l34 37 -37 -34 c-21 -19 -35 -38 -32 -42 7 -12 -35 -32 -52 -25
-10 4 -12 2 -8 -6 5 -8 1 -9 -12 -4 -14 5 -16 4 -8 -4 14 -14 68 7 119 46 66
50 89 120 140 418 25 148 43 271 40 274 -3 3 -5 2 -5 -2z"/>
<path d="M1871 2073 c-1 -109 3 -173 9 -173 12 0 12 296 0 325 -5 12 -9 -47
-9 -152z"/>
<path d="M1921 1958 c-1 -35 3 -48 13 -48 7 0 16 11 18 25 3 13 1 23 -5 22 -6
-1 -14 9 -18 23 -5 20 -7 15 -8 -22z"/>
<path d="M2116 1903 c-6 -14 -5 -15 5 -6 7 7 10 15 7 18 -3 3 -9 -2 -12 -12z"/>
<path d="M1147 1803 c-3 -60 -10 -125 -16 -145 -14 -45 -71 -130 -91 -136 -11
-3 -9 2 5 19 12 13 25 31 30 39 6 9 -3 0 -20 -19 -16 -19 -30 -39 -30 -45 0
-6 -18 -21 -40 -33 -49 -28 -39 -30 14 -3 52 26 116 101 136 158 16 44 35 272
23 272 -3 0 -8 -48 -11 -107z"/>
<path d="M1792 1776 c-29 -12 -50 -25 -46 -28 6 -7 93 27 109 43 14 14 -4 10
-63 -15z"/>
<path d="M1908 1743 c7 -3 16 -2 19 1 4 3 -2 6 -13 5 -11 0 -14 -3 -6 -6z"/>
<path d="M1162 1645 c-1 -11 -15 -43 -32 -71 -33 -58 -109 -115 -179 -134 -56
-15 -48 -23 13 -11 102 19 212 129 203 203 -2 18 -5 24 -5 13z"/>
<path d="M1974 1530 c0 -74 1 -105 3 -67 2 37 2 97 0 135 -2 37 -3 6 -3 -68z"/>
<path d="M2007 1653 c-2 -4 -5 -44 -6 -88 -2 -98 16 -83 20 17 3 62 -2 91 -14
71z"/>
<path d="M1871 1626 c-13 -14 -36 -30 -52 -36 l-29 -12 -1 -302 c-1 -165 -2
-320 -3 -344 -1 -33 2 -41 14 -37 8 3 41 16 73 28 l57 22 0 127 c0 70 4 129
10 133 8 5 100 -172 100 -195 0 -16 25 -12 97 17 38 14 69 27 71 28 6 4 -79
174 -107 212 l-30 41 31 63 c22 46 98 250 98 265 0 4 -135 -37 -140 -43 -4 -5
-31 -77 -60 -160 -30 -84 -57 -153 -62 -153 -4 0 -8 81 -8 179 0 154 -2 180
-16 185 -21 8 -17 9 -43 -18z"/>
<path d="M2187 1558 c-14 -45 -25 -84 -23 -86 2 -2 16 33 31 78 15 45 25 83
23 85 -2 3 -16 -32 -31 -77z"/>
<path d="M2060 1619 c0 -5 5 -7 10 -4 6 3 10 8 10 11 0 2 -4 4 -10 4 -5 0 -10
-5 -10 -11z"/>
<path d="M720 1469 l-15 -121 -83 -32 c-46 -17 -80 -34 -77 -38 9 -9 166 57
175 73 12 24 32 221 23 230 -5 5 -15 -44 -23 -112z"/>
<path d="M918 1453 c7 -3 16 -2 19 1 4 3 -2 6 -13 5 -11 0 -14 -3 -6 -6z"/>
<path d="M2122 1388 c-17 -39 -30 -73 -29 -75 2 -2 19 29 37 67 17 39 30 73
28 75 -2 2 -18 -28 -36 -67z"/>
<path d="M835 1392 c-13 -113 -11 -110 -105 -145 -46 -18 -86 -38 -88 -46 -3
-9 2 -11 19 -7 24 6 24 6 2 -5 -12 -6 -23 -21 -25 -33 -2 -11 -13 -25 -25 -31
l-23 -10 0 -347 c0 -192 2 -348 3 -348 2 0 35 13 72 28 l68 28 1 346 1 347
-22 6 c-39 9 -26 21 60 54 l84 33 9 83 c8 73 7 84 -8 94 -15 9 -17 4 -23 -47z"/>
<path d="M1518 1394 c-123 -47 -185 -127 -209 -268 -18 -104 -7 -255 23 -314
29 -59 58 -71 131 -53 28 7 62 13 74 14 11 1 19 5 17 9 -3 4 8 14 24 22 47 24
100 91 116 147 16 54 22 149 9 149 -4 0 -33 -10 -65 -22 -54 -21 -58 -25 -58
-56 0 -18 -6 -48 -14 -67 -23 -54 -95 -78 -111 -37 -12 31 -18 158 -10 227 6
60 11 73 41 103 58 58 89 35 96 -70 1 -20 6 -35 10 -32 5 3 6 9 3 14 -3 5 22
19 55 31 l60 22 0 46 c0 60 -17 118 -41 142 -26 26 -69 24 -151 -7z"/>
<path d="M1742 1295 c0 -103 0 -103 -38 -115 -47 -16 -39 -23 9 -8 45 14 53
35 39 110 -10 50 -11 51 -10 13z"/>
<path d="M1486 1241 c-10 -11 -16 -26 -13 -33 4 -9 6 -7 6 4 1 9 11 24 23 32
12 9 18 16 12 16 -6 0 -19 -9 -28 -19z"/>
<path d="M1517 1238 c-29 -22 -37 -66 -35 -186 l1 -117 7 125 c6 125 15 160
48 179 9 6 12 11 6 11 -5 0 -18 -6 -27 -12z"/>
<path d="M1046 1206 c-86 -29 -141 -68 -176 -123 -82 -129 -80 -429 4 -499 27
-23 37 -26 83 -21 30 3 74 17 100 31 25 15 48 24 50 22 3 -3 -12 -14 -34 -25
-21 -11 -33 -20 -28 -21 16 0 78 40 71 47 -3 3 12 26 34 50 61 70 82 136 87
283 6 139 -4 193 -42 238 -33 39 -72 44 -149 18z m36 -148 c17 -31 17 -231 0
-280 -23 -65 -89 -91 -114 -45 -13 25 -17 202 -5 258 16 75 91 117 119 67z"/>
<path d="M994 1035 c-9 -14 -15 -27 -13 -30 3 -2 12 10 21 26 21 36 15 39 -8
4z"/>
<path d="M1032 1044 c-31 -21 -42 -75 -40 -189 l1 -100 7 115 c6 116 16 151
48 169 9 5 14 12 11 15 -3 3 -15 -1 -27 -10z"/>
<path d="M1056 1011 c-23 -25 -37 -136 -29 -219 3 -34 9 -60 12 -56 3 3 7 48
7 100 1 63 8 111 19 140 19 51 16 63 -9 35z"/>
<path d="M972 970 c0 -14 2 -19 5 -12 2 6 2 18 0 25 -3 6 -5 1 -5 -13z"/>
<path d="M1001 734 c0 -11 3 -14 6 -6 3 7 2 16 -1 19 -3 4 -6 -2 -5 -13z"/>
<path d="M1541 1207 c-19 -24 -35 -161 -27 -230 4 -32 10 -57 12 -54 3 3 7 54
8 114 2 61 9 120 15 132 7 12 11 29 9 38 -3 15 -4 15 -17 0z"/>
<path d="M1706 1204 c-11 -8 -16 -14 -10 -14 13 0 39 18 34 24 -3 2 -14 -2
-24 -10z"/>
<path d="M2235 1129 c25 -53 45 -101 45 -106 0 -5 -33 -22 -72 -38 -76 -29
-103 -45 -77 -45 21 0 169 61 169 70 0 14 -77 174 -94 195 -9 11 4 -23 29 -76z"/>
<path d="M1461 1174 c0 -11 3 -14 6 -6 3 7 2 16 -1 19 -3 4 -6 -2 -5 -13z"/>
<path d="M1697 1143 c-42 -16 -64 -29 -56 -33 11 -7 103 24 123 42 21 18 -3
15 -67 -9z"/>
<path d="M1613 1143 c-43 -22 -60 -85 -18 -69 10 4 15 15 13 28 -2 17 5 28 27
40 38 22 21 22 -22 1z"/>
<path d="M1968 1023 l-3 -97 -80 -32 c-44 -18 -75 -33 -70 -34 6 0 45 14 88
31 l77 31 0 99 c0 55 -2 99 -5 99 -2 0 -6 -44 -7 -97z"/>
<path d="M1272 1085 c0 -16 2 -22 5 -12 2 9 2 23 0 30 -3 6 -5 -1 -5 -18z"/>
<path d="M1743 1019 c-20 -154 -90 -235 -248 -285 -22 -7 -32 -13 -23 -13 31
-2 122 38 171 75 52 38 82 79 97 134 13 48 28 180 20 180 -3 0 -11 -41 -17
-91z"/>
<path d="M1278 950 c-8 -110 -24 -183 -52 -237 -41 -81 -143 -161 -188 -148
-16 4 -19 3 -9 -3 11 -8 11 -10 0 -15 -12 -5 -12 -6 0 -6 25 -2 132 62 163 98
66 75 102 205 96 347 -3 66 -3 65 -10 -36z"/>
<path d="M2002 981 l3 -74 -70 -30 c-38 -16 -82 -30 -97 -31 -18 -2 -37 -17
-60 -46 -41 -54 -152 -116 -229 -128 l-54 -8 37 -7 c87 -18 251 63 293 143 8
15 29 30 53 37 23 7 65 24 96 37 l54 24 -5 64 c-8 94 -24 109 -21 19z"/>
<path d="M2165 1005 c-44 -19 -75 -34 -69 -35 12 0 154 57 163 65 10 11 -18 2
-94 -30z"/>
<path d="M1721 1014 c0 -11 3 -14 6 -6 3 7 2 16 -1 19 -3 4 -6 -2 -5 -13z"/>
<path d="M1711 963 c-1 -6 -4 -20 -7 -30 -5 -17 -5 -17 6 0 6 10 9 23 6 30 -3
9 -5 9 -5 0z"/>
<path d="M355 936 c-187 -60 -250 -161 -249 -401 0 -268 58 -308 288 -197 5 3
5 -2 1 -9 -5 -8 -6 -12 -2 -9 3 3 6 10 7 15 2 15 31 45 43 45 6 0 2 -10 -9
-22 -10 -13 -4 -9 15 7 18 17 39 42 47 57 24 46 15 46 -12 0 -34 -58 -41 -48
-8 11 19 34 27 67 31 123 l6 76 -24 -7 c-13 -4 -42 -16 -65 -25 -39 -17 -41
-21 -47 -71 -5 -37 -14 -60 -31 -77 -26 -27 -73 -33 -87 -11 -16 26 -22 145
-12 229 10 75 14 87 42 112 58 52 87 31 92 -65 2 -34 6 -44 17 -40 10 5 11 8
1 13 -7 5 12 16 50 30 l61 23 0 53 c0 68 -24 128 -56 143 -31 14 -48 13 -99
-3z"/>
<path d="M1252 890 c0 -14 2 -19 5 -12 2 6 2 18 0 25 -3 6 -5 1 -5 -13z"/>
<path d="M1690 903 c0 -5 -17 -29 -37 -54 -21 -24 -27 -35 -14 -24 32 27 65
75 57 82 -3 4 -6 2 -6 -4z"/>
<path d="M546 813 c4 -38 1 -69 -6 -83 -10 -18 -9 -21 2 -18 17 6 21 61 9 118
-10 42 -10 41 -5 -17z"/>
<path d="M1241 824 c0 -11 3 -14 6 -6 3 7 2 16 -1 19 -3 4 -6 -2 -5 -13z"/>
<path d="M1288 761 c-35 -119 -107 -191 -237 -238 -63 -22 -64 -23 -21 -18
118 15 229 102 269 211 23 59 25 73 13 91 -4 7 -14 -12 -24 -46z"/>
<path d="M1584 794 c-18 -14 -18 -15 4 -4 12 6 22 13 22 15 0 8 -5 6 -26 -11z"/>
<path d="M309 785 c-25 -14 -45 -43 -35 -52 2 -3 7 5 11 16 3 12 11 21 16 21
13 0 11 -14 -3 -28 -15 -15 -24 -245 -11 -279 5 -13 8 27 8 105 0 149 6 176
43 196 20 11 22 15 9 16 -10 0 -15 5 -12 10 8 13 6 12 -26 -5z"/>
<path d="M1231 793 c-1 -6 -4 -20 -7 -30 -5 -17 -5 -17 6 0 6 10 9 23 6 30 -3
9 -5 9 -5 0z"/>
<path d="M338 725 c-22 -41 -30 -275 -10 -275 5 0 9 47 10 105 0 57 5 120 12
140 16 47 7 68 -12 30z"/>
<path d="M1350 736 c0 -7 -14 -40 -30 -74 -49 -96 -126 -152 -244 -176 l-61
-13 37 -7 c65 -12 164 25 234 86 36 32 94 136 94 169 0 9 -7 19 -15 23 -9 3
-15 0 -15 -8z"/>
<path d="M1210 734 c0 -5 -19 -34 -42 -64 -23 -30 -33 -49 -24 -41 26 22 79
101 72 108 -3 4 -6 2 -6 -3z"/>
<path d="M261 694 c0 -11 3 -14 6 -6 3 7 2 16 -1 19 -3 4 -6 -2 -5 -13z"/>
<path d="M460 690 c-8 -5 -10 -10 -5 -10 6 0 17 5 25 10 8 5 11 10 5 10 -5 0
-17 -5 -25 -10z"/>
<path d="M498 673 c-37 -15 -63 -30 -56 -34 15 -9 128 33 128 49 0 6 -1 12 -2
12 -2 -1 -33 -13 -70 -27z"/>
<path d="M403 668 c-11 -6 -23 -22 -26 -37 -6 -31 -3 -36 19 -27 11 4 15 14
12 30 -4 18 1 27 16 34 12 6 17 11 11 11 -5 0 -20 -5 -32 -11z"/>
<path d="M547 571 c-8 -99 -25 -146 -70 -197 -44 -50 -124 -100 -101 -63 4 7
-2 7 -17 -1 -34 -18 -38 -24 -9 -15 20 6 23 5 13 -6 -7 -7 -29 -13 -48 -13
-19 0 -30 -3 -23 -7 7 -5 5 -9 -8 -12 -10 -2 -3 -2 16 0 93 12 216 113 239
195 15 54 29 188 21 188 -4 0 -10 -31 -13 -69z"/>
<path d="M522 530 c0 -14 2 -19 5 -12 2 6 2 18 0 25 -3 6 -5 1 -5 -13z"/>
<path d="M988 533 c7 -3 16 -2 19 1 4 3 -2 6 -13 5 -11 0 -14 -3 -6 -6z"/>
<path d="M511 484 c0 -11 3 -14 6 -6 3 7 2 16 -1 19 -3 4 -6 -2 -5 -13z"/>
<path d="M558 419 c-20 -70 -127 -149 -248 -184 l-55 -15 55 4 c124 11 267
118 258 192 l-3 29 -7 -26z"/>
<path d="M1345 1999 c-4 -6 -5 -12 -2 -15 2 -3 7 2 10 11 7 17 1 20 -8 4z"/>
<path d="M1396 1968 c-13 -18 -16 -54 -16 -189 l0 -166 -71 -28 c-38 -15 -68
-30 -65 -33 3 -2 39 8 80 24 l75 28 -2 161 c-2 138 0 164 16 187 19 31 21 38
8 38 -6 0 -17 -10 -25 -22z"/>
<path d="M1649 1764 c-8 -10 -27 -25 -44 -36 -36 -21 -26 -24 14 -4 30 16 57
44 49 51 -3 3 -11 -2 -19 -11z"/>
<path d="M2042 2335 c0 -16 2 -22 5 -12 2 9 2 23 0 30 -3 6 -5 -1 -5 -18z"/>
<path d="M2052 2270 c0 -14 2 -19 5 -12 2 6 2 18 0 25 -3 6 -5 1 -5 -13z"/>
<path d="M1612 2168 c-7 -7 -12 -17 -12 -22 0 -6 5 -3 11 7 5 9 14 17 20 17 5
0 2 -12 -8 -26 -13 -20 -18 -51 -19 -123 l-2 -96 7 97 c6 81 11 102 30 122 19
21 20 24 6 30 -21 8 -19 8 -33 -6z"/>
<path d="M1649 2119 c-16 -31 -25 -191 -11 -215 9 -15 11 -1 12 66 0 47 5 102
11 123 12 45 6 59 -12 26z"/>
<path d="M442 1520 c0 -14 2 -19 5 -12 2 6 2 18 0 25 -3 6 -5 1 -5 -13z"/>
<path d="M433 1450 c0 -25 2 -35 4 -22 2 12 2 32 0 45 -2 12 -4 2 -4 -23z"/>
<path d="M573 1780 c0 -25 2 -35 4 -22 2 12 2 32 0 45 -2 12 -4 2 -4 -23z"/>
<path d="M581 1694 c0 -11 3 -14 6 -6 3 7 2 16 -1 19 -3 4 -6 -2 -5 -13z"/>
<path d="M910 1885 c-7 -9 -11 -17 -9 -20 3 -2 10 5 17 15 14 24 10 26 -8 5z"/>
<path d="M926 1868 c-9 -12 -16 -36 -15 -53 l1 -30 7 30 c4 17 13 40 20 53 15
28 7 29 -13 0z"/>
<path d="M955 1847 c-12 -19 -16 -50 -17 -122 0 -53 2 -99 6 -102 3 -4 6 28 6
70 0 43 7 96 16 123 18 53 13 67 -11 31z"/>
<path d="M903 1730 c0 -30 2 -43 4 -27 2 15 2 39 0 55 -2 15 -4 2 -4 -28z"/>
<path d="M912 1640 c0 -14 2 -19 5 -12 2 6 2 18 0 25 -3 6 -5 1 -5 -13z"/>
<path d="M323 1680 c0 -25 2 -35 4 -22 2 12 2 32 0 45 -2 12 -4 2 -4 -23z"/>
</g>
</svg>
